<mxfile host="app.diagrams.net" modified="2023-12-31T22:28:59.646Z" agent="Mozilla/5.0 (Windows NT 10.0; Win64; x64) AppleWebKit/537.36 (KHTML, like Gecko) Chrome/120.0.0.0 Safari/537.36" etag="gFmaEd1aRag9oQDuW5Bx" version="22.1.16" type="device">
  <diagram name="Página-1" id="nvz32nUWm88d6tqkX3ZS">
    <mxGraphModel dx="746" dy="1565" grid="1" gridSize="10" guides="1" tooltips="1" connect="1" arrows="1" fold="1" page="1" pageScale="1" pageWidth="827" pageHeight="1169" math="0" shadow="0">
      <root>
        <mxCell id="0" />
        <mxCell id="1" parent="0" />
        <mxCell id="rLiF3_yO4dpib0Afzau--16" value="" style="group" vertex="1" connectable="0" parent="1">
          <mxGeometry x="360" y="-1001" width="120" height="32" as="geometry" />
        </mxCell>
        <mxCell id="rLiF3_yO4dpib0Afzau--6" value="" style="endArrow=diamond;html=1;rounded=0;endFill=0;entryX=1;entryY=0.5;entryDx=0;entryDy=0;strokeWidth=2;" edge="1" parent="rLiF3_yO4dpib0Afzau--16">
          <mxGeometry width="50" height="50" relative="1" as="geometry">
            <mxPoint x="120" y="32" as="sourcePoint" />
            <mxPoint y="32" as="targetPoint" />
          </mxGeometry>
        </mxCell>
        <mxCell id="rLiF3_yO4dpib0Afzau--12" value="&lt;font style=&quot;vertical-align: inherit;&quot;&gt;&lt;font style=&quot;vertical-align: inherit;&quot;&gt;&lt;font style=&quot;vertical-align: inherit;&quot;&gt;&lt;font style=&quot;vertical-align: inherit;&quot;&gt;&lt;b&gt;1... *&lt;/b&gt;&lt;/font&gt;&lt;/font&gt;&lt;/font&gt;&lt;/font&gt;" style="text;html=1;align=center;verticalAlign=middle;resizable=0;points=[];autosize=1;strokeColor=none;fillColor=none;" vertex="1" parent="rLiF3_yO4dpib0Afzau--16">
          <mxGeometry x="36.92307692307693" width="50" height="30" as="geometry" />
        </mxCell>
        <mxCell id="rLiF3_yO4dpib0Afzau--19" value="Acciones" style="shape=table;startSize=30;container=1;collapsible=0;childLayout=tableLayout;fontFamily=Courier New;fontStyle=1" vertex="1" parent="1">
          <mxGeometry x="480" y="-1080" width="280" height="260" as="geometry" />
        </mxCell>
        <mxCell id="rLiF3_yO4dpib0Afzau--20" value="" style="shape=tableRow;horizontal=0;startSize=0;swimlaneHead=0;swimlaneBody=0;strokeColor=inherit;top=0;left=0;bottom=0;right=0;collapsible=0;dropTarget=0;fillColor=none;points=[[0,0.5],[1,0.5]];portConstraint=eastwest;" vertex="1" parent="rLiF3_yO4dpib0Afzau--19">
          <mxGeometry y="30" width="280" height="81" as="geometry" />
        </mxCell>
        <mxCell id="rLiF3_yO4dpib0Afzau--21" value="&lt;font face=&quot;Courier New&quot;&gt;- nombre: String&lt;br&gt;-fecha: Date&lt;br&gt;-precio: Double&lt;br&gt;-cantidad: Int&lt;/font&gt;" style="shape=partialRectangle;html=1;whiteSpace=wrap;connectable=0;strokeColor=inherit;overflow=hidden;fillColor=none;top=0;left=0;bottom=0;right=0;pointerEvents=1;" vertex="1" parent="rLiF3_yO4dpib0Afzau--20">
          <mxGeometry width="280" height="81" as="geometry">
            <mxRectangle width="280" height="81" as="alternateBounds" />
          </mxGeometry>
        </mxCell>
        <mxCell id="rLiF3_yO4dpib0Afzau--22" value="" style="shape=tableRow;horizontal=0;startSize=0;swimlaneHead=0;swimlaneBody=0;strokeColor=inherit;top=0;left=0;bottom=0;right=0;collapsible=0;dropTarget=0;fillColor=none;points=[[0,0.5],[1,0.5]];portConstraint=eastwest;" vertex="1" parent="rLiF3_yO4dpib0Afzau--19">
          <mxGeometry y="111" width="280" height="149" as="geometry" />
        </mxCell>
        <mxCell id="rLiF3_yO4dpib0Afzau--23" value="&lt;font face=&quot;Courier New&quot;&gt;&lt;br&gt;+getNombre(): String&lt;br&gt;+getDate(): Date&lt;br&gt;+getPrecio(): Double&lt;br&gt;+getCantidad(): Int&lt;br&gt;+setNombre(nombre: String): void&lt;br&gt;+setDate(fecha: Date): void&lt;br&gt;+setPrecio( precio: Double): void&lt;br&gt;+setCantidad( cantidad: Int): void&lt;br&gt;&lt;br&gt;&lt;/font&gt;" style="shape=partialRectangle;html=1;whiteSpace=wrap;connectable=0;strokeColor=inherit;overflow=hidden;fillColor=none;top=0;left=0;bottom=0;right=0;pointerEvents=1;" vertex="1" parent="rLiF3_yO4dpib0Afzau--22">
          <mxGeometry width="280" height="149" as="geometry">
            <mxRectangle width="280" height="149" as="alternateBounds" />
          </mxGeometry>
        </mxCell>
        <mxCell id="rLiF3_yO4dpib0Afzau--24" value="RegistroAcciones" style="shape=table;startSize=30;container=1;collapsible=0;childLayout=tableLayout;fontFamily=Courier New;spacing=2;fontStyle=1" vertex="1" parent="1">
          <mxGeometry x="80" y="-1080" width="280" height="260" as="geometry" />
        </mxCell>
        <mxCell id="rLiF3_yO4dpib0Afzau--25" value="" style="shape=tableRow;horizontal=0;startSize=0;swimlaneHead=0;swimlaneBody=0;strokeColor=inherit;top=0;left=0;bottom=0;right=0;collapsible=0;dropTarget=0;fillColor=none;points=[[0,0.5],[1,0.5]];portConstraint=eastwest;" vertex="1" parent="rLiF3_yO4dpib0Afzau--24">
          <mxGeometry y="30" width="280" height="79" as="geometry" />
        </mxCell>
        <mxCell id="rLiF3_yO4dpib0Afzau--26" value="&lt;font face=&quot;Courier New&quot;&gt;- acciones: List &amp;lt;Accion&amp;gt;&lt;/font&gt;" style="shape=partialRectangle;html=1;whiteSpace=wrap;connectable=0;strokeColor=inherit;overflow=hidden;fillColor=none;top=0;left=0;bottom=0;right=0;pointerEvents=1;" vertex="1" parent="rLiF3_yO4dpib0Afzau--25">
          <mxGeometry width="280" height="79" as="geometry">
            <mxRectangle width="280" height="79" as="alternateBounds" />
          </mxGeometry>
        </mxCell>
        <mxCell id="rLiF3_yO4dpib0Afzau--27" value="" style="shape=tableRow;horizontal=0;startSize=0;swimlaneHead=0;swimlaneBody=0;strokeColor=inherit;top=0;left=0;bottom=0;right=0;collapsible=0;dropTarget=0;fillColor=none;points=[[0,0.5],[1,0.5]];portConstraint=eastwest;" vertex="1" parent="rLiF3_yO4dpib0Afzau--24">
          <mxGeometry y="109" width="280" height="151" as="geometry" />
        </mxCell>
        <mxCell id="rLiF3_yO4dpib0Afzau--28" value="&lt;font face=&quot;Courier New&quot;&gt;+ añadirAccion (accion:Accion) : void&lt;br&gt;+getAcciones(): List&amp;lt;Accion&amp;gt;&amp;nbsp;&amp;nbsp;&lt;/font&gt;" style="shape=partialRectangle;html=1;whiteSpace=wrap;connectable=0;strokeColor=inherit;overflow=hidden;fillColor=none;top=0;left=0;bottom=0;right=0;pointerEvents=1;" vertex="1" parent="rLiF3_yO4dpib0Afzau--27">
          <mxGeometry width="280" height="151" as="geometry">
            <mxRectangle width="280" height="151" as="alternateBounds" />
          </mxGeometry>
        </mxCell>
      </root>
    </mxGraphModel>
  </diagram>
</mxfile>
